<?xml version="1.0" encoding="UTF-8" standalone="no"?>
<!-- Created with Inkscape (http://www.inkscape.org/) -->

<svg
   xmlns:dc="http://purl.org/dc/elements/1.1/"
   xmlns:cc="http://creativecommons.org/ns#"
   xmlns:rdf="http://www.w3.org/1999/02/22-rdf-syntax-ns#"
   xmlns:svg="http://www.w3.org/2000/svg"
   xmlns="http://www.w3.org/2000/svg"
   xmlns:sodipodi="http://sodipodi.sourceforge.net/DTD/sodipodi-0.dtd"
   xmlns:inkscape="http://www.inkscape.org/namespaces/inkscape"
   width="210mm"
   height="297mm"
   id="svg2"
   version="1.1"
   inkscape:version="0.48.2 r9819"
   sodipodi:docname="Nouveau document 1">
  <defs
     id="defs4">
    <filter
       inkscape:collect="always"
       id="filter4045"
       x="-0.048302463"
       width="1.0966049"
       y="-7.6654496"
       height="16.330899">
      <feGaussianBlur
         inkscape:collect="always"
         stdDeviation="9.581812"
         id="feGaussianBlur4047" />
    </filter>
    <filter
       inkscape:collect="always"
       id="filter4202">
      <feGaussianBlur
         inkscape:collect="always"
         stdDeviation="36.358661"
         id="feGaussianBlur4204" />
    </filter>
  </defs>
  <sodipodi:namedview
     id="base"
     pagecolor="#ffffff"
     bordercolor="#666666"
     borderopacity="1.0"
     inkscape:pageopacity="0.0"
     inkscape:pageshadow="2"
     inkscape:zoom="0.5"
     inkscape:cx="1374.4653"
     inkscape:cy="2300.3682"
     inkscape:document-units="px"
     inkscape:current-layer="layer1"
     showgrid="false"
     inkscape:window-width="1920"
     inkscape:window-height="1028"
     inkscape:window-x="-8"
     inkscape:window-y="-8"
     inkscape:window-maximized="1" />
  <metadata
     id="metadata7">
    <rdf:RDF>
      <cc:Work
         rdf:about="">
        <dc:format>image/svg+xml</dc:format>
        <dc:type
           rdf:resource="http://purl.org/dc/dcmitype/StillImage" />
        <dc:title></dc:title>
      </cc:Work>
    </rdf:RDF>
  </metadata>
  <g
     inkscape:label="Calque 1"
     inkscape:groupmode="layer"
     id="layer1">
    <path
       style="fill:#ee4095;fill-opacity:1;stroke:#fa3c96;stroke-width:0.03867187;stroke-miterlimit:4;stroke-opacity:1;stroke-dasharray:none;stroke-dashoffset:0"
       d=""
       id="path3843"
       inkscape:connector-curvature="0" />
    <path
       style="fill:#ee4095;fill-opacity:1;stroke:#fa3c96;stroke-width:0.03867187;stroke-miterlimit:4;stroke-opacity:1;stroke-dasharray:none;stroke-dashoffset:0"
       d=""
       id="path3847"
       inkscape:connector-curvature="0" />
    <path
       style="fill:#ee4095;fill-opacity:1;stroke:#fa3c96;stroke-width:0.03867187;stroke-miterlimit:4;stroke-opacity:1;stroke-dasharray:none;stroke-dashoffset:0"
       d=""
       id="path3849"
       inkscape:connector-curvature="0" />
    <path
       style="fill:#ee4095;fill-opacity:1;stroke:#fa3c96;stroke-width:0.03867187;stroke-miterlimit:4;stroke-opacity:1;stroke-dasharray:none;stroke-dashoffset:0"
       d=""
       id="path3851"
       inkscape:connector-curvature="0" />
    <path
       style="fill:#ee4095;fill-opacity:1;stroke:#fa3c96;stroke-width:0.03867187;stroke-miterlimit:4;stroke-opacity:1;stroke-dasharray:none;stroke-dashoffset:0"
       d=""
       id="path3853"
       inkscape:connector-curvature="0" />
    <g
       id="g3053"
       style="stroke:#000000;stroke-width:21.5;stroke-miterlimit:4;stroke-opacity:1;stroke-dasharray:none"
       transform="translate(1943.1294,-644.88139)">
      <path
         sodipodi:nodetypes="ccc"
         inkscape:connector-curvature="0"
         id="path3027"
         d="m -934.50832,-925.63782 c 214.16103,142.18938 -106.04238,282.13664 -54.00874,450.71068 -46.41654,-129.97687 -59.19684,-167.76634 54.00874,-450.71068 z"
         style="fill:none;stroke:#000000;stroke-width:21.5;stroke-linecap:butt;stroke-linejoin:miter;stroke-miterlimit:4;stroke-opacity:1;stroke-dasharray:none" />
      <path
         sodipodi:nodetypes="cc"
         inkscape:connector-curvature="0"
         id="path3027-1"
         d="m -934.06728,-928.88782 c -227.52952,151.58347 -110.50142,350.05296 -53.18467,453.38925"
         style="fill:none;stroke:#000000;stroke-width:21.5;stroke-linecap:butt;stroke-linejoin:miter;stroke-miterlimit:4;stroke-opacity:1;stroke-dasharray:none" />
      <path
         sodipodi:nodetypes="ccc"
         inkscape:connector-curvature="0"
         id="path3049"
         d="m -1022.1517,-843.57159 42.30373,37.25309 120.20815,-18.18275"
         style="fill:none;stroke:#000000;stroke-width:21.5;stroke-linecap:butt;stroke-linejoin:miter;stroke-miterlimit:4;stroke-opacity:1;stroke-dasharray:none" />
      <path
         sodipodi:nodetypes="ccc"
         inkscape:connector-curvature="0"
         id="path3051"
         d="m -1065.3538,-746.65822 51.1606,50.44635 121.09579,-26.55983"
         style="fill:none;stroke:#000000;stroke-width:21.5;stroke-linecap:butt;stroke-linejoin:miter;stroke-miterlimit:4;stroke-opacity:1;stroke-dasharray:none" />
    </g>
    <path
       style="fill:none;stroke:#000000;stroke-width:1px;stroke-linecap:butt;stroke-linejoin:miter;stroke-opacity:1"
       d="m 880.954,-1379.075 42.1738,41.1637 -8.8388,55.0533 0,44.6993 8.8388,42.4264 4.0407,12.6269 -24.7488,-57.8312 -12.8794,-41.4163 -7.5762,-36.1129 z"
       id="path3831"
       inkscape:connector-curvature="0" />
    <g
       id="g3855"
       transform="translate(1943.1294,-644.88139)">
      <path
         inkscape:connector-curvature="0"
         id="path3837"
         d="m -1031.9636,-575.764 -8.1849,-20.50234 -6.878,-19.80996 -5.4639,-18.57253 -4.3829,-18.40181 -3.6759,-20.34635 -2.0138,-18.41484 c -1.7566,-16.06294 1.0112,-44.16732 0.947,-43.16476 0.034,-0.20402 25.8521,25.61883 40.6338,40.16332 l 1.7218,1.60003 -5.1485,28.04009 -3.0254,27.94727 -0.7626,22.05154 1.3259,22.33371 3.8532,25.36685 c 0.307,2.02111 2.6652,11.98729 3.0778,13.2532 0.5014,1.97304 8.6689,26.19872 3.3408,13.7557 z"
         style="fill:#ee4095;fill-opacity:1;stroke:#fa3c96;stroke-width:1.76785707;stroke-miterlimit:4;stroke-opacity:1;stroke-dasharray:none;stroke-dashoffset:0"
         sodipodi:nodetypes="ccccccscccccccsccc" />
    </g>
    <path
       style="fill:#ee4095;fill-opacity:1;stroke:#fa3c96;stroke-width:0.15625797;stroke-miterlimit:4;stroke-opacity:1;stroke-dasharray:none;stroke-dashoffset:0"
       d="m 922.8295,-1194.5388 c -0.2843,-0.6635 -0.5209,-1.2167 -0.5257,-1.2293 -0.01,-0.017 0.025,-0.033 0.128,-0.065 0.075,-0.023 0.1393,-0.039 0.1424,-0.036 0,0 0.02,0.069 0.037,0.1473 0.017,0.078 0.1921,0.6447 0.389,1.2596 0.1969,0.6149 0.3554,1.1205 0.3522,1.1237 0,0 -0.2383,-0.5371 -0.5226,-1.2006 l 0,0 z"
       id="path3839"
       inkscape:connector-curvature="0" />
    <path
       style="fill:#ee4095;fill-opacity:1;stroke:#fa3c96;stroke-width:0.03906449;stroke-miterlimit:4;stroke-opacity:1;stroke-dasharray:none;stroke-dashoffset:0"
       d="m 923.3913,-1193.2088 -0.05,-0.117 0.012,-0 c 0.01,-0 0.013,-0 0.014,-0 0,0 0.076,0.236 0.075,0.2389 -7e-4,0 -0.024,-0.049 -0.051,-0.1139 z"
       id="path3841"
       inkscape:connector-curvature="0" />
    <path
       style="fill:#ee4095;fill-opacity:1;stroke:#fa3c96;stroke-width:0.03867187;stroke-miterlimit:4;stroke-opacity:1;stroke-dasharray:none;stroke-dashoffset:0"
       d="m 923.4172,-1193.1062 c -0.019,-0.045 -0.092,-0.2124 -0.093,-0.2139 -10e-4,-10e-4 -0.01,9e-4 -0.02,0 -0.01,0 0.047,0.099 0.045,0.097 -0.012,-0.013 -0.4067,-0.8644 -0.8516,-1.9058 -0.1358,-0.3179 -0.2481,-0.5793 -0.2495,-0.5808 -10e-4,-10e-4 -0.137,0.04 -0.3013,0.093 -0.1644,0.053 -0.3009,0.095 -0.3035,0.094 -0.01,-0 -0.189,-0.3861 -0.1838,-0.3912 9e-4,-10e-4 0.3203,-10e-4 0.7098,-7e-4 l 0.7082,10e-4 -0.1031,0.033 c -0.057,0.018 -0.105,0.034 -0.1074,0.035 0,0 -5e-4,0.019 0.01,0.057 0.033,0.142 0.1261,0.4437 0.4504,1.4648 0.2577,0.8117 0.2919,1.0295 0.2882,1.0391 -0.001,0 -0.001,-0.075 -0.01,-0.072 -0.01,0 -0.016,0.01 -0.018,0.01 0,0 0.01,0.035 0.02,0.075 0.024,0.073 0.043,0.2093 0.043,0.2141 0,0 -0.015,-0.035 -0.022,-0.035 0,0 0.04,0.071 0.037,0.063 z m -0.6009,-1.6769 c -0.1657,-0.5242 -0.2701,-0.8698 -0.2906,-0.9621 -0.01,-0.035 9e-4,-0.034 -0.075,-0.012 -0.026,0.01 -0.048,0.016 -0.048,0.018 0,0 0.423,0.9948 0.4244,0.9934 5e-4,-5e-4 0,-0.018 -0.011,-0.038 z"
       id="path3845"
       inkscape:connector-curvature="0"
       sodipodi:nodetypes="ccccccccscccccsccccsscccccssc" />
    <g
       id="g3886"
       transform="translate(1807.1294,-643.88139)"
       style="stroke:none">
      <path
         inkscape:connector-curvature="0"
         id="path3858"
         d="m -872.511,-692.24702 104.82854,-22.98097 -36.06245,54.27045 -27.22361,42.60318 -18.03122,36.23922 -10.78338,31.1127 -3.35876,29.87526 -8.66202,-30.22881 -5.4801,-25.10229 -2.4749,-17.32412 -1.0606,-26.5165 1.0606,-22.98097 3.0052,-25.10229 z"
         style="fill:none;stroke:none" />
      <path
         inkscape:connector-curvature="0"
         id="path3876"
         d="m -868.35575,-544.15333 c -8.24732,-30.92247 -10.83164,-48.49378 -10.86409,-73.86708 -0.0378,-29.57171 5.65181,-72.18831 9.80626,-73.45105 1.20405,-0.36597 22.87206,-5.17697 48.15113,-10.69112 25.27907,-5.51414 47.12205,-10.36558 48.53996,-10.78097 1.6276,-0.47682 -4.14323,9.32821 -15.65353,26.5964 -32.47998,48.72769 -45.55618,69.95678 -54.02725,87.71277 -10.71093,22.45092 -18.04284,43.71303 -19.71316,57.16708 -0.7295,5.8759 -1.56565,10.92275 -1.85813,11.21522 -0.29246,0.29247 -2.264,-5.96309 -4.38119,-13.90125 l 0,0 z"
         style="fill:#fec339;fill-opacity:1;stroke:none" />
      <path
         inkscape:connector-curvature="0"
         id="path3878"
         d="m -865.85996,-530.44946 c -3.24238,-9.3087 -10.1719,-35.32541 -12.15173,-47.91137 -2.99417,-19.0342 -4.39217,-32.3864 -3.02629,-57.54082 1.17303,-21.60269 6.08669,-54.73238 8.56489,-57.40507 0.69613,-0.75077 8.39125,-1.91087 51.22806,-11.39823 26.43331,-5.85437 53.62658,-11.61902 53.73162,-11.51398 0.61849,0.61848 -10.0723,15.74011 -26.71842,41.16124 -33.45853,51.09621 -42.85859,67.47405 -54.32824,89.65955 -8.96638,17.34348 -11.91718,31.8748 -14.03571,46.09409 -0.60752,4.07757 -1.21984,7.61972 -1.36072,7.87145 -0.16302,0.2913 -1.53008,2.05509 -1.90346,0.98314 z"
         style="fill:#fec339;fill-opacity:1;stroke:none"
         sodipodi:nodetypes="csssssssscc" />
      <path
         inkscape:connector-curvature="0"
         id="path3880"
         d="m -867.34435,-537.78344 -4.47661,-13.51258 -2.2086,-12.81632 -2.73894,-12.55114 -1.20764,-8.3969 -1.20764,-8.39689 -0.42997,-10.38563 c -0.23649,-5.7121 -0.43178,-10.73366 -0.43399,-11.15903 l -0.004,-0.7734 0.38598,0 0.38598,0 0.059,2.93892 c 0.36141,18.01334 0.96654,34.03488 5.05502,52.20914 3.10764,13.81423 9.44145,30.41186 10.15315,30.41186 0.29411,0 0.91684,-3.56956 1.90436,-10.91596 0.35805,-2.6636 0.21412,-4.66905 0.69631,-6.8059 0.1426,-0.63197 6.3617,-23.32141 5.83578,-14.71207 -0.69911,5.87584 -7.65906,41.15076 -7.70868,41.30614 -0.0136,0.0427 -2.68449,-7.27149 -4.05945,-16.44024 z"
         style="fill:#fec339;fill-opacity:1;stroke:none"
         sodipodi:nodetypes="ccccccscccccsssccccc" />
      <path
         inkscape:connector-curvature="0"
         id="path3882"
         d="m -859.72244,-553.09114 c 0,-0.0556 -0.0503,-0.9759 0.21223,-1.93718 2.64292,-9.67595 5.81551,-23.20804 12.4522,-34.71663 7.461,-12.93803 13.0748,-25.68145 25.52068,-45.63049 l 1.00638,-1.61309 0.38739,0 c 0.21306,0 0.37413,0.0353 0.35792,0.0785 -0.0162,0.0431 -2.64351,4.16978 -5.83847,9.17029 l -5.80901,9.09183 -3.63209,8.92722 -13.70836,28.19589 -5.08439,14.31891 c -2.85782,8.04832 -5.80793,14.15871 -5.82799,14.17896 -0.0201,0.0203 -0.0365,-0.009 -0.0365,-0.0642 z"
         style="fill:#fec339;fill-opacity:1;stroke:none"
         sodipodi:nodetypes="cssscscscccsccc" />
      <path
         inkscape:connector-curvature="0"
         id="path3884"
         d="m -880.08372,-616.16913 c -0.22492,-1.09837 -1.95987,-4.78167 -0.60357,-15.45358 l 1.51907,-11.95267 1.49823,-12.4375 1.49822,-12.4375 2.06646,-11.61061 c 1.13655,-6.38583 2.09447,-11.63861 2.1287,-11.67284 0.0792,-0.0792 103.75127,-23.86298 103.81304,-23.81469 0.0253,0.0197 -8.84782,13.32767 -18.63767,28.06074 -12.30451,18.51747 -20.13328,30.44329 -25.35843,38.62934 -7.0125,10.9862 -7.58356,11.84208 -7.90247,11.84375 -0.18906,10e-4 -0.34375,-0.0238 -0.34375,-0.0552 0,-0.18908 9.01088,-14.22004 15.41667,-24.00551 2.47529,-3.78125 7.98797,-12.13438 12.2504,-18.5625 11.39512,-17.18485 14.73187,-22.38713 17.95928,-28 1.89349,-3.29303 2.75148,-5.375 2.21505,-5.375 -0.10533,0 -1.0268,0.20034 -2.04771,0.44521 -3.13516,0.75197 -18.96879,4.26009 -47.91869,10.61692 -38.93257,8.54882 -46.54962,10.25494 -47.10076,10.54989 -1.78612,0.9559 -3.588,9.95696 -5.57201,23.97637 -2.14179,15.13432 -4.07224,34.87172 -4.07627,48.31786 l -9.6e-4,3.21875 -0.37262,0 c -0.28602,0 -0.386,-0.0654 -0.43021,-0.28125 l 0,0 z"
         style="fill:#fec339;fill-opacity:1;stroke:none"
         sodipodi:nodetypes="cscccsscsscssssssscsscsccc" />
    </g>
    <path
       style="fill:#00a85d;fill-opacity:1;stroke:none"
       d="m 902.9799,-1373.5976 -20.4293,-20.0875 1.9941,-9.8811 c 4.6523,-23.0521 16.5055,-50.9403 29.3392,-70.2654 l 5.8259,-9.0859 19.2722,16.625 18.89717,16.75 -9.71725,27.456 c -4.99115,14.1025 -10.89722,34.2481 -14.14652,45.5264 -3.2494,11.2784 -6.3729,26.1241 -6.8286,26.6481 -0.4557,0.524 -12.7441,-12.5674 -24.1756,-23.5919 z"
       id="path3896"
       inkscape:connector-curvature="0"
       sodipodi:nodetypes="ccsscccssscc" />
    <path
       style="fill:#8749a0;fill-opacity:1;stroke:none"
       d="m 966.79927,-1446.9634 -12.5625,37.375 -10.71599,35.1998 -6.83578,27.0073 110.8106,-24.5303 13.168,-24.2322 7.8535,-17.5304 5.8536,-17.1339 3.375,-16.375 0.875,-16.5088 z"
       id="path3898"
       inkscape:connector-curvature="0"
       sodipodi:nodetypes="ccccccccccc" />
    <path
       style="fill:#0c73b6;fill-opacity:1;stroke:none"
       d="m 1000.4233,-1561.9763 -25.02508,18.4948 -22.27297,20.4194 -12.46975,13.5 -15.75,18.3661 36.48751,32.4142 z"
       id="path3900"
       inkscape:connector-curvature="0"
       sodipodi:nodetypes="ccccccc" />
    <path
       style="fill:#f07550;fill-opacity:1;stroke:none"
       d="m 1010.9127,-1563.6222 -41.18012,106.6518 108.19102,-16.4528 -4.2426,-19.0919 -9.1924,-18.0312 -13.7886,-19.0919 -18.7383,-17.6777 z"
       id="path3902"
       inkscape:connector-curvature="0"
       sodipodi:nodetypes="cccccccc" />
    <flowRoot
       xml:space="preserve"
       id="flowRoot3928"
       style="font-size:72px;font-style:normal;font-variant:normal;font-weight:normal;font-stretch:normal;text-align:start;line-height:125%;letter-spacing:0px;word-spacing:0px;writing-mode:lr-tb;text-anchor:start;fill:#5c5c5c;fill-opacity:1;stroke:none;font-family:Jokerman;-inkscape-font-specification:Jokerman"
       transform="matrix(7.7777723,0,0,7.7777723,31151.091,1584.8635)"><flowRegion
         id="flowRegion3930"><rect
           id="rect3932"
           width="1513.2085"
           height="718.42047"
           x="-3889.0872"
           y="-353.36609"
           style="font-size:72px;font-style:normal;font-variant:normal;font-weight:normal;font-stretch:normal;text-align:start;line-height:125%;writing-mode:lr-tb;text-anchor:start;font-family:Jokerman;-inkscape-font-specification:Jokerman;fill:#5c5c5c;fill-opacity:1" /></flowRegion><flowPara
         id="flowPara3934">BDE</flowPara></flowRoot>    <path
       style="fill:none;stroke:#000000;stroke-width:12.69499969;stroke-linecap:butt;stroke-linejoin:miter;stroke-miterlimit:4;stroke-opacity:1;stroke-dasharray:none;filter:url(#filter4045)"
       d="m 2226.9094,-1549.6378 476.0906,3"
       id="path4031"
       inkscape:connector-curvature="0" />
    <rect
       style="fill:#ffffff;fill-opacity:1;stroke:none"
       id="rect3947"
       width="1763.8336"
       height="1089.0336"
       x="679.44336"
       y="-163.49634" />
    <path
       style="fill:#5c5c5c"
       d="m 1337.8418,-302.11821 c -2.3152,-2.36151 -16.2638,-17.45615 -30.9969,-33.54365 -23.5905,-25.7591 -27.8964,-30.09001 -28.8325,-29 -0.1181,0.1375 -0.4556,14.65 -0.75,32.25 l -0.5353,32 -11,0 -11,0 0,-50.5 0,-50.5 8.1482,-0.2888 8.1483,-0.2888 30.8389,33.5388 c 16.9615,18.44634 31.4073,33.5388 32.1018,33.5388 0.9908,0 1.2628,-6.89368 1.2628,-32 l 0,-32 11.5093,0 11.5092,0 -0.2592,50.25 -0.2593,50.25 -7.8379,0.29365 -7.838,0.29364 z m 519.3853,2.63027 c -19.9212,-5.23189 -35.8296,-20.15418 -40.4671,-37.95888 -8.3161,-31.92791 16.9214,-61.93505 53.9671,-64.16632 32.0386,-1.9297 59.3692,17.54632 63.5366,45.27677 3.8583,25.67369 -14.4816,50.36567 -42.2763,56.91894 -8.0453,1.89685 -27.4189,1.85755 -34.7603,-0.0705 z m 29.4971,-19.50871 c 7.3326,-2.74348 16.1751,-10.93996 20.0478,-18.58305 2.5086,-4.95094 2.9498,-6.96538 2.9203,-13.33216 -0.028,-6.13009 -0.5207,-8.43293 -2.6947,-12.6076 -6.9256,-13.2989 -23.3586,-21.23365 -38.2674,-18.4776 -12.0235,2.22265 -20.6081,8.49057 -25.6467,18.72535 -4.1747,8.48002 -4.3716,16.42016 -0.6075,24.49372 8.2111,17.61154 27.2721,26.13288 44.2482,19.78134 z m -858.2589,16.86874 c -0.406,-1.25617 -0.6129,-23.54645 -0.4597,-49.53395 l 0.2785,-47.25 11.4809,0 11.481,0 -0.2595,49.25 -0.2594,49.25 -10.7618,0.28395 c -10.4419,0.27551 -10.7838,0.21605 -11.5,-2 z m 533.4285,1.54938 c -0.3667,-0.36666 -0.6667,-22.64836 -0.6667,-49.51488 l 0,-48.84821 29.75,0.26488 29.75,0.26488 0.2907,7.09381 c 0.2072,5.05869 -0.1002,7.41816 -1.0716,8.22438 -0.8583,0.71233 -7.4396,1.23252 -17.7907,1.40618 l -16.4284,0.27563 0,10 0,10 15.4301,0.27702 c 9.5924,0.17221 15.9448,0.70421 16.7907,1.40618 0.9694,0.8046 1.277,3.16826 1.0699,8.22299 l -0.2907,7.09381 -16.5,0.5 -16.5,0.5 -0.5503,21.5 c -0.3026,11.825 -0.6401,21.6125 -0.75,21.75 -0.468,0.58584 -21.9273,0.18902 -22.533,-0.41667 z M 1761.3623,-444.451 c -1.8507,-0.80347 -5.1355,-1.46086 -7.2997,-1.46086 -4.6579,0 -6.7127,-0.99335 -21.8381,-10.55683 -11.2621,-7.12082 -11.594,-7.43667 -15.8767,-15.10801 -2.4057,-4.3093 -5.6491,-8.9602 -7.2075,-10.3352 -2.6694,-2.3553 -2.9414,-3.368 -4.7005,-17.5 -1.483,-11.9145 -1.6227,-15.5142 -0.6793,-17.5 0.6533,-1.375 1.4615,-5.5693 1.7961,-9.3206 0.8917,-9.9957 8.616,-23.4976 19.7901,-34.5925 2.5407,-2.5228 5.1343,-5.5811 5.7635,-6.7963 1.4642,-2.8281 5.6231,-4.7475 15.6169,-7.2076 4.4,-1.0831 10.25,-2.6864 13,-3.5628 2.75,-0.8764 6.125,-1.3135 7.5,-0.9713 3.916,0.9745 20.2899,3.5822 22.397,3.567 1.0434,-0.01 4.1857,1.9883 6.9829,4.4352 2.7971,2.4469 5.8968,4.4489 6.8881,4.4489 2.2167,0 6.732,2.8554 6.732,4.2572 0,0.565 1.9399,3.3257 4.3109,6.135 2.371,2.8093 4.7957,6.4578 5.3883,8.1078 1.549,4.3135 1.4373,11.2377 -0.2464,15.2672 -0.799,1.9124 -1.4528,4.2096 -1.4528,5.105 -10e-5,1.5358 -5.1096,6.3344 -9.2711,8.7069 -1.2718,0.725 -3.4243,0.7778 -6.5608,0.1608 -2.5675,-0.505 -6.2431,-1.0378 -8.1681,-1.1839 -1.925,-0.1462 -3.9913,-0.331 -4.5917,-0.4108 -1.3291,-0.1767 -3.4083,-6.7779 -3.4083,-10.8209 0,-2.0407 1.3789,-4.5592 4.4948,-8.2095 5.1027,-5.9781 4.9815,-7.4212 -0.9305,-11.075 -1.9036,-1.1765 -3.732,-2.9929 -4.0633,-4.0365 -0.7387,-2.3277 -9.9915,-5.9711 -17.0434,-6.7111 -4.4289,-0.4647 -5.6785,-0.1378 -10.2695,2.6871 -2.8749,1.769 -7.0044,3.4547 -9.1766,3.746 -4.7406,0.6359 -9.8405,4.7473 -16.7928,13.538 -6.5642,8.2999 -7.2227,12.8141 -3.8576,26.4427 1.3462,5.4522 2.2096,11.3484 1.9476,13.3003 -0.7174,5.3446 5.0992,16.0855 9.2997,17.1729 1.9824,0.5132 4.1228,2.2685 5.9089,4.8459 2.0483,2.9556 4.9139,5.1068 10.6677,8.0081 9.8233,4.95323 14.1194,5.14085 21.7248,0.9487 2.9753,-1.64 6.0068,-2.9819 6.7366,-2.9819 0.7297,0 1.9848,-1.575 2.7892,-3.5 0.8043,-1.925 2.1243,-3.5 2.9334,-3.5 0.8091,0 3.6445,-2.4376 6.301,-5.417 7.0943,-7.9566 16.3242,-11.2239 24.0745,-8.5222 2.9739,1.0367 3.0533,1.2356 3.4924,8.75 l 0.4495,7.6892 -3.6456,4 c -2.0051,2.2 -4.2354,5.1906 -4.9563,6.64565 -1.8375,3.70891 -8.0015,9.85439 -9.8841,9.85439 -0.8643,0 -2.5005,0.82121 -3.636,1.82491 -1.1354,1.00369 -4.0894,2.42328 -6.5644,3.15463 -2.475,0.73135 -6.075,2.36814 -8,3.63733 -2.1287,1.40345 -5.8509,2.57271 -9.5,2.98422 -3.3,0.37215 -7.2151,1.28914 -8.7003,2.03777 -3.3413,1.6842 -4.4266,1.6619 -8.6645,-0.178 z m 120.1927,-1.52761 c -3.9225,-1.94164 -4.358,-1.96906 -7.2794,-0.45835 -1.709,0.88376 -3.5981,1.30347 -4.198,0.9327 -0.5999,-0.37077 -5.2025,-0.77111 -10.2278,-0.88963 -9.2596,-0.2184 -13.7686,-1.57897 -16.6204,-5.01517 -1.1416,-1.37559 -1.099,-2.35832 0.274,-6.31593 0.8943,-2.57778 1.7605,-5.81187 1.9249,-7.18687 0.2959,-2.47603 0.4037,-2.50274 11.2394,-2.78577 6.0251,-0.15737 11.5345,-0.77857 12.2624,-1.38267 0.9927,-0.8239 1.1636,-2.9926 0.6865,-8.7142 -0.3817,-4.5775 -0.164,-9.8871 0.5456,-13.305 0.9722,-4.6831 0.9289,-6.1843 -0.2455,-8.5 -1.0684,-2.1066 -1.3582,-6.1219 -1.1547,-16.0013 0.1494,-7.2539 0.5585,-13.6532 0.9092,-14.2206 0.3507,-0.5675 -0.098,-2.4532 -0.9959,-4.1907 -1.7659,-3.4148 -1.6567,-5.2917 1.0631,-18.2695 1.1548,-5.5102 1.3336,-8.1854 0.5963,-8.9226 -0.6608,-0.6608 -0.827,-3.7257 -0.4462,-8.2297 0.3464,-4.0978 0.1834,-7.933 -0.38,-8.9396 -0.6692,-1.1959 -0.5628,-3.7373 0.3309,-7.9007 0.7246,-3.3757 1.3333,-8.0731 1.3526,-10.4387 0.033,-3.9754 -0.2274,-4.4107 -3.4328,-5.75 -1.9073,-0.7969 -6.1968,-1.449 -9.5321,-1.449 -6.982,0 -11.465,-1.6201 -14.9564,-5.4052 -2.264,-2.4545 -2.3539,-2.9148 -1.1486,-5.8789 0.7192,-1.7687 1.5386,-4.2235 1.8209,-5.4551 0.2822,-1.2315 2.0918,-3.2148 4.0212,-4.4073 l 3.5081,-2.1681 7.1274,2.3914 c 5.2212,1.7518 9.5344,2.423 16.1274,2.5095 11.5938,0.1522 10.7867,-0.064 12.8576,3.442 1.8344,3.1053 1.7918,4.196 -0.5462,14.0105 -0.9045,3.797 -0.7996,5.0834 0.6422,7.8715 1.8943,3.6631 1.4793,8.7364 -1.0277,12.5625 -1.1744,1.7923 -1.2246,3.196 -0.2823,7.888 0.861,4.2874 0.8614,6.333 0,8.2205 -1.4271,3.1322 -1.4935,11.8988 -0.1098,14.4845 0.6777,1.2663 2.0934,1.9342 4.0994,1.9342 3.1262,0 4.1347,-0.816 18.1366,-14.6756 5.7312,-5.6729 11.2209,-9.3148 14.0496,-9.3206 1.0015,0 4.3889,-1.4264 7.5276,-3.1651 l 5.7069,-3.1614 3.9724,2.5555 c 2.6614,1.7122 6.0793,2.7769 10.3565,3.2262 8.0717,0.848 10.6987,2.5306 11.4687,7.3456 0.4382,2.7404 1.3921,4.2042 3.5831,5.4985 2.2027,1.3012 3.1336,2.7389 3.5487,5.4804 0.3095,2.0441 1.0362,5.0665 1.6151,6.7165 0.5788,1.65 1.4919,9.3 2.0291,17 1.2305,17.6383 1.2318,16.2895 -0.019,21 -0.5841,2.2 -1.0728,7.3173 -1.0859,11.3717 -0.031,9.7155 2.738,28.2552 4.4874,30.0401 0.9517,0.971 4.7027,1.5594 12.0145,1.8846 l 10.6309,0.4728 2.0583,4.23655 2.0583,4.23658 -2.6912,7.04279 c -1.4801,3.87354 -3.2291,7.21387 -3.8866,7.42295 -0.6575,0.20908 -7.7205,-0.0131 -15.6955,-0.49376 -7.975,-0.48065 -16.3,-0.86044 -18.5,-0.84397 -7.3656,0.0551 -18.9765,1.66743 -21.2764,2.95444 -1.9674,1.10097 -2.7139,0.97229 -5.5,-0.94804 -3.7204,-2.5643 -7.6353,-6.87854 -7.6877,-8.47171 -0.06,-1.8111 -3.7644,-4.6041 -5.6279,-4.24264 -0.9574,0.18571 -3.1672,2.36265 -4.9105,4.83765 -2.8689,4.07279 -3.5549,4.5 -7.2261,4.5 -2.4589,0 -4.8189,0.68918 -5.9926,1.75 -1.3596,1.22878 -3.6079,1.75 -7.5486,1.75 -3.0867,0 -5.8903,0.45 -6.2302,1 -0.9529,1.54176 -3.6006,1.19614 -8.1721,-1.06675 z m 42.9878,-18.09556 c 1.2014,-0.63927 3.771,-2.43359 5.7103,-3.98733 3.0922,-2.4775 4.5072,-2.8646 11.5,-3.1462 l 7.974,-0.3211 0.021,-8.4415 c 0.012,-4.6429 0.3567,-9.3816 0.7663,-10.5305 0.4396,-1.233 0.1475,-3.5185 -0.7128,-5.5777 -1.2582,-3.0112 -1.2665,-4.0255 -0.06,-7.411 0.7686,-2.1573 1.4173,-4.7257 1.4414,-5.7075 0.024,-0.9819 0.7544,-2.8696 1.6228,-4.1949 1.8233,-2.7828 1.1526,-12.0796 -1.2063,-16.7203 -0.8092,-1.592 -1.3726,-5.8464 -1.3726,-10.3651 0,-7.5597 -0.051,-7.7112 -3.6954,-11.0497 -2.0325,-1.8617 -4.6775,-3.3849 -5.8779,-3.3849 -1.2003,0 -3.798,-0.675 -5.7725,-1.5 -6.1037,-2.5503 -10.1295,-1.9687 -14.6513,2.1164 -2.2016,1.989 -4.0029,4.1382 -4.0029,4.7759 0,0.6377 -1.9104,2.0479 -4.2453,3.1336 -3.4742,1.6156 -4.3961,2.6367 -5.0752,5.6221 -0.6413,2.8188 -2.1885,4.7029 -6.8073,8.2898 -3.761,2.9207 -6.7155,6.2029 -7.9681,8.852 -1.0949,2.3157 -2.6284,5.3594 -3.4079,6.7639 -2.3552,4.244 -3.8617,16.4031 -2.3709,19.1357 0.6934,1.2709 1.375,4.7856 1.5148,7.8106 0.2453,5.3058 0.9496,11.0683 1.923,15.7319 0.6885,3.2984 5.6415,5.5877 8.8885,4.1083 1.8841,-0.8585 3.1825,-0.8723 4.9814,-0.053 1.3381,0.6096 3.9658,0.8597 5.8393,0.5557 3.093,-0.5019 3.6023,-0.221 5.5334,3.05198 2.2944,3.88883 5.3279,4.66791 9.51,2.44247 z m -945.81569,15.8819 c -1.1,-0.67077 -7.4,-1.75481 -14,-2.40897 -12.6275,-1.25157 -20.9189,-2.55885 -23.6145,-3.72324 -2.3575,-1.01831 -3.8855,-5.04256 -3.8855,-10.23322 0,-6.0787 4.2,-10.3542 10.1715,-10.3542 2.178,0 4.9429,-0.5378 6.1442,-1.1951 1.4314,-0.7831 7.872,-1.214 18.6843,-1.25 l 16.5,-0.055 0.3068,-3.6898 c 0.1687,-2.0295 -0.35,-4.96 -1.1528,-6.5124 -1.3501,-2.6107 -1.2908,-3.0188 0.7905,-5.4384 1.8052,-2.0987 2.4144,-4.4692 3.0806,-11.9877 0.944,-10.6537 0.9418,-10.968 -0.191,-27.6666 -0.581,-8.5634 -0.4917,-13.2826 0.2941,-15.5494 2.4004,-6.9244 2.6816,-11.6559 0.8153,-13.7182 -2.1087,-2.33 -5.7165,-2.5184 -7.4822,-0.3908 -0.706,0.8507 -2.5619,2.4569 -4.1242,3.5693 l -2.8406,2.0227 -3.3663,-3.5693 c -3.7355,-3.9608 -8.6178,-4.8024 -12.1891,-2.1012 -3.2894,2.488 -8.1349,1.9288 -10.1675,-1.1734 -4.8385,-7.3845 -5.7899,-15.5393 -2.1635,-18.5448 2.6236,-2.1744 2.4471,-2.1791 24.8703,0.6585 12.74,1.6123 19.137,2.0395 20.5944,1.3755 1.2839,-0.585 3.8439,-0.6229 6.51959,-0.097 3.9049,0.7681 4.702,1.4131 7.0133,5.6752 2.5654,4.7307 2.616,5.2162 3.124,29.9543 0.3745,18.2329 0.1845,26.1129 -0.6909,28.6643 -2.3287,6.7873 1.1052,33.191 4.9983,38.4332 1.3507,1.8187 1.9102,1.8497 11.2,0.6201 5.378,-0.7118 14.2209,-1.0998 19.6509,-0.8624 9.2827,0.406 10.0141,0.5964 12.2413,3.1856 1.5187,1.7656 2.3687,4.0134 2.3687,6.2638 0,1.9305 0.4124,4.28059 0.9165,5.22242 1.5687,2.93123 -2.5043,10.8161 -6.2668,12.13168 -5.7402,2.00713 -14.3549,2.44283 -16.8636,0.8529 -3.8213,-2.42183 -48.60749,-0.79521 -53.47039,1.94202 -2.7315,1.53756 -5.2375,1.52124 -7.8157,-0.0509 z m 630.17969,-1.29127 c -1.5511,-0.86122 -6.6573,-1.96173 -11.3469,-2.44557 -4.8854,-0.50405 -9.6596,-1.60023 -11.1797,-2.56698 -4.2824,-2.72343 -16.1329,-15.75191 -16.1434,-17.74811 -0.01,-1.0077 -2.254,-4.0884 -4.997,-6.8458 -5.6819,-5.7119 -6.5379,-8.0993 -8.0165,-22.3588 -0.8037,-7.75 -1.5699,-10.7315 -3.5121,-13.6664 -3.2348,-4.8882 -3.1328,-6.9941 0.5159,-10.6428 2.4488,-2.4488 3,-3.8309 3,-7.5219 0,-3.1729 1.0442,-6.6025 3.5,-11.4959 1.925,-3.8357 3.5,-7.4139 3.5,-7.9514 0,-1.589 6.6954,-6.9966 11.9755,-9.6722 2.8443,-1.4414 5.4521,-3.6289 6.2131,-5.2119 0.7213,-1.5003 2.4364,-3.2634 3.8114,-3.918 6.7459,-3.2112 8.0472,-3.6687 8.6687,-3.0472 0.3694,0.3694 1.771,-0.049 3.1146,-0.9291 2.0032,-1.3125 4.0879,-1.4808 11.5799,-0.9349 18.3307,1.3358 26.8946,3.378 32.1368,7.6637 1.1,0.8993 2.9678,1.9279 4.1506,2.2858 1.1828,0.358 2.4079,1.6759 2.7223,2.9287 0.3144,1.2529 2.3842,3.9549 4.5994,6.0045 2.2152,2.0496 4.0277,4.3984 4.0277,5.2195 0,1.678 4.3366,10.6103 7.0039,14.4264 2.7908,3.9928 3.3057,8.3233 1.5028,12.6383 -0.8837,2.1149 -1.5365,4.974 -1.4507,6.3535 0.4471,7.1915 0.4111,7.237 -5.306,6.7025 -2.8875,-0.2699 -6.4808,-0.8128 -7.9852,-1.2063 -2.1393,-0.5596 -3.8325,-0.011 -7.772,2.5166 l -5.0367,3.2321 -3.9566,-2.6183 c -2.1762,-1.4401 -5.0111,-2.6184 -6.2999,-2.6184 -3.6692,0 -11.3168,2.9195 -13.2535,5.0596 -2.3023,2.5441 -3.2583,2.449 -5.6248,-0.5596 -1.6466,-2.0933 -2.8086,-2.499 -7.1439,-2.4942 -2.8476,0 -7.8774,0.5308 -11.1774,1.1724 -3.3,0.6417 -8.4244,1.2016 -11.3875,1.2442 -6.4346,0.093 -8.3368,1.9215 -6.1834,5.9451 0.7351,1.3737 1.0392,3.2728 0.6756,4.2202 -0.6703,1.747 3.4231,13.6123 5.6751,16.4498 1.6286,2.0519 9.9729,6.9345 16.4793,9.6427 2.8925,1.204 6.4407,3.1185 7.8849,4.25444 1.4441,1.13597 3.6689,2.0654 4.9438,2.0654 1.2749,0 3.4239,0.50382 4.7754,1.1196 1.9621,0.89402 2.9231,0.79327 4.7695,-0.5 1.4576,-1.02092 4.3657,-1.6196 7.8673,-1.6196 6.6136,0 8.9868,-1.42664 11.4465,-6.88124 1.0697,-2.3722 3.4248,-5.0914 5.7325,-6.6185 2.1543,-1.4257 5.5828,-4.0714 7.6189,-5.8794 5.279,-4.6876 6.8739,-5.04 9.7576,-2.1562 3.2396,3.2395 3.2712,8.3958 0.075,12.2086 -1.3033,1.5547 -3.2158,4.2208 -4.25,5.9247 -1.0341,1.7038 -4.5012,5.49206 -7.7046,8.41828 -5.2491,4.79487 -6.5332,5.4533 -13,6.66584 -3.9466,0.73999 -8.3124,2.17826 -9.7018,3.19615 -1.3894,1.01788 -4.0894,2.10459 -6,2.41489 -1.9106,0.3103 -4.5988,0.81998 -5.9738,1.13262 -1.4251,0.32402 -3.7127,-0.10485 -5.3203,-0.99742 z m -5.6797,-73.42836 c 4.6763,-2.3856 7.3135,-2.5321 9,-0.5 1.6619,2.0026 2.8504,1.8913 7,-0.6554 1.925,-1.1815 5.3,-2.1923 7.5,-2.2463 l 4,-0.098 0.8536,-10.2067 0.8536,-10.2068 -3.8536,-5.9876 c -2.2425,-3.4843 -4.5909,-6.0109 -5.6172,-6.0433 -0.9699,-0.031 -2.5449,-0.5428 -3.5,-1.1383 -1.2823,-0.7994 -2.8359,-0.7034 -5.9403,0.3672 -3.8527,1.3287 -4.4603,1.2938 -7.2742,-0.4174 -5.8659,-3.5673 -11.0219,-1.3552 -11.0219,4.7288 0,1.8073 -0.4108,3.5399 -0.913,3.8503 -0.5021,0.3103 -1.2294,2.4744 -1.6161,4.809 -0.9019,5.4444 -1.9324,7.4333 -6.1282,11.8269 -2.8943,3.0308 -3.2772,3.9543 -2.4879,6 1.4308,3.708 5.2712,6.7245 9.1452,7.1833 1.925,0.2279 4.0804,0.4865 4.7898,0.5745 0.7094,0.088 3.054,-0.74 5.2102,-1.84 z m -522.1952,72.0611 c -1.4412,-1.13358 -3.1118,-2.06106 -3.7125,-2.06106 -1.545,0 -1.3544,-4.12842 0.3825,-8.28549 1.9832,-4.74634 5.9591,-7.70635 10.4101,-7.74995 1.9883,-0.019 4.7401,-0.6785 6.1151,-1.4646 1.375,-0.786 3.7582,-1.445 5.296,-1.4645 2.3844,-0.03 3.1549,-0.8084 5.2335,-5.2855 1.3405,-2.8875 2.1827,-6.059 1.8713,-7.0479 -0.3113,-0.9889 -0.022,-2.454 0.6437,-3.2557 1.6749,-2.0181 1.2568,-19.7596 -0.5946,-25.2313 -1.6574,-4.8982 -2.0514,-29.2227 -0.5197,-32.0847 1.3964,-2.6092 -0.3162,-4.4991 -5.1425,-5.6749 -3.1117,-0.7581 -4.6463,-1.7883 -5.5951,-3.7561 -0.7191,-1.4912 -3.6441,-4.2092 -6.5,-6.0398 -6.8021,-4.3602 -7.6515,-5.5172 -8.3443,-11.3663 -0.5499,-4.6431 -0.3982,-5.0735 2.71,-7.6889 3.4949,-2.9407 3.4173,-2.9394 13.4018,-0.2248 3.2781,0.8913 9.03,1.6204 12.7821,1.6204 3.7521,0 8.3666,0.6454 10.2543,1.4341 3.7161,1.5527 4.3185,2.9584 4.7422,11.0659 0.2404,4.5998 0.4755,5.0248 2.9373,5.3093 2.9482,0.3408 8.8703,-2.9991 12.7483,-7.1896 1.3334,-1.4408 3.1334,-2.6278 4,-2.6379 0.8666,-0.01 3.5559,-1.36 5.9762,-3 2.4203,-1.6399 5.0147,-2.9818 5.7654,-2.9818 0.7507,0 3.7205,-1.5494 6.5995,-3.4432 5.2296,-3.44 5.2439,-3.4429 15.0521,-3.017 9.5713,0.4155 9.9798,0.5329 16.2863,4.6791 4.6717,3.0715 7.542,5.9237 10.3324,10.2671 3.5442,5.5167 3.9005,6.7169 4.3089,14.514 0.3257,6.2173 1.07,9.7602 2.7713,13.1922 l 2.3259,4.6922 -2.8102,4.2465 -2.8103,4.2466 0.7258,27.5613 c 0.3991,15.1587 1.1574,28.0823 1.6851,28.7191 0.5276,0.6369 2.5191,1.8981 4.4255,2.80274 2.5454,1.20787 4.26,3.21719 6.454,7.5636 3.6241,7.17927 3.6529,7.71566 0.4909,9.15636 -2.0233,0.92188 -3.1274,0.79815 -5.8208,-0.65233 -3.5075,-1.88893 -10.6252,-1.80249 -28.6823,0.34832 -5.8233,0.69362 -8.1037,0.58372 -10.2003,-0.4916 -1.4852,-0.76172 -4.6577,-1.38495 -7.05,-1.38495 -2.3923,0 -4.8897,-0.54 -5.5497,-1.2 -1.4293,-1.42929 -1.5601,-5.72253 -0.2773,-9.09672 1.2034,-3.16509 7.1978,-4.70328 18.329,-4.70328 5.186,0 8.9648,-0.47514 9.9413,-1.25004 2.485,-1.9719 2.7213,-6.4298 0.6942,-13.0951 -2.2526,-7.4065 -2.4121,-13.5786 -0.419,-16.2137 1.7124,-2.2641 1.9845,-6.0433 0.5011,-6.9601 -0.5987,-0.37 -0.7607,-2.0758 -0.3866,-4.07 0.4114,-2.193 0.1819,-3.9898 -0.6353,-4.9745 -1.0333,-1.245 -1.0417,-3.3583 -0.044,-10.9867 1.1782,-9.0057 1.1394,-9.5805 -0.8341,-12.3519 -1.1383,-1.5987 -2.0697,-4.0379 -2.0697,-5.4205 0,-4.039 -0.8667,-5.3314 -6.4788,-9.6611 -7.5505,-5.8252 -10.7383,-6.5452 -15.8995,-3.5913 -2.2669,1.2974 -6.1488,2.6435 -8.6263,2.9914 -13.571,1.9055 -24.0502,14.5603 -27.5742,33.2987 -0.8051,4.2817 -1.923,10.0866 -2.4841,12.8998 -0.7857,3.9395 -0.666,6.8121 0.5206,12.5 1.9227,9.2163 1.9296,11.3187 0.042,12.885 -3.3801,2.8053 0.029,12.3418 4.8439,13.5502 1.3233,0.3321 6.2883,0.45672 11.0334,0.2769 7.9147,-0.3 10.0832,0.15226 7.7232,1.61084 -0.4948,0.30576 -1.4257,2.74898 -2.0687,5.42938 -0.7557,3.15026 -2.294,5.95624 -4.3504,7.93576 l -3.1814,3.06231 -27.5,-0.0503 c -15.125,-0.0276 -28.4169,0.25514 -29.5375,0.62839 -1.3441,0.44769 -2.9292,-0.0228 -4.6577,-1.38243 z m 360.8502,0.1102 c -0.9103,-1.00581 -1.655,-3.25235 -1.655,-4.99231 0,-2.69463 -0.7406,-3.64648 -4.9963,-6.42126 -4.0826,-2.66202 -5.369,-4.24157 -7.0349,-8.63843 -1.1212,-2.9595 -2.6845,-6.303 -3.474,-7.4301 -1.2707,-1.8142 -1.2153,-2.4052 0.4824,-5.1522 1.7328,-2.8038 1.8072,-3.7483 0.7712,-9.7961 -0.8769,-5.1198 -0.8612,-8.4028 0.067,-13.967 1.2959,-7.7687 2.8005,-24.9732 3.8397,-43.9047 l 0.6384,-11.6308 -2.5701,-1.684 c -2.1939,-1.4375 -3.4134,-1.5281 -8.3304,-0.6192 -3.1681,0.5857 -8.8337,1.0648 -12.5901,1.0648 -3.7565,0 -7.6113,0.4808 -8.5664,1.0683 -1.3191,0.8116 -2.8901,0.5546 -6.5375,-1.0694 -5.2995,-2.3596 -6.6989,-4.6917 -6.6989,-11.164 0,-3.2382 0.6571,-4.6919 3.3279,-7.3628 2.9604,-2.9604 3.7744,-3.268 7.3704,-2.7857 2.4599,0.3299 4.312,0.106 4.7311,-0.5721 1.1598,-1.8766 10.3343,-1.2715 15.6965,1.0352 l 4.9967,2.1496 2.6887,-2.0052 2.6887,-2.0051 0.5,-20.7349 c 0.4905,-20.341 0.5451,-20.7713 2.8765,-22.657 3.8368,-3.1035 7.0552,-3.4089 13.0826,-1.2416 4.9418,1.7769 5.6267,2.3788 6.5821,5.7839 0.5864,2.0904 1.8296,4.3588 2.7626,5.041 2.2617,1.6538 2.1548,2.6813 -0.9078,8.725 l -2.6039,5.1387 1.8019,5.3013 c 1.7165,5.0498 1.7196,5.4741 0.065,8.9439 -1.6046,3.3649 -1.6142,3.8302 -0.1267,6.1004 l 1.6103,2.4577 17.1788,-0.1559 c 24.991,-0.2268 24.1514,-0.3058 27.602,2.5976 2.482,2.0885 3.0767,3.3545 3.0767,6.5497 0,3.8015 -2.2652,9.769 -3.7757,9.9466 -0.3983,0.047 -9.1146,0.1593 -19.3694,0.25 -16.7953,0.1485 -18.8539,0.3538 -20.75,2.0698 -1.1577,1.0478 -2.1049,3.0294 -2.1049,4.4036 0,1.6283 -1.3779,3.7707 -3.9557,6.1505 l -3.9557,3.6519 1.9557,6.2836 c 1.0756,3.456 1.9557,8.8064 1.9557,11.8898 0,4.7239 0.4236,6.0484 2.6916,8.4156 l 2.6916,2.8095 -3.1916,3.2929 c -3.8351,3.9568 -3.9719,5.4753 -0.735,8.1601 2.4283,2.0141 2.4432,2.127 1.2949,9.8285 -1.4551,9.7597 0.146,15.9945 4.2485,16.5437 1.375,0.1841 2.9275,0.7466 3.45,1.25 0.5225,0.5034 3.3246,0.9153 6.227,0.9153 5.8407,0 7.4916,-1.4544 8.8061,-7.7583 0.3737,-1.792 1.5802,-3.7403 2.6811,-4.3295 1.7369,-0.9296 1.914,-1.7079 1.3394,-5.8857 l -0.6621,-4.8145 6.6327,-6.798 6.6328,-6.7981 5.6595,1.4421 c 6.4658,1.6475 6.9728,2.5324 7.1283,12.442 0.1271,8.1077 -1.4689,13.2763 -5.4684,17.7087 -1.9042,2.1103 -4.0213,6.03 -4.9123,9.0949 -1.0905,3.7512 -2.3168,5.7881 -4.0399,6.71028 -1.3608,0.72827 -2.4742,2.04795 -2.4742,2.93263 0,3.37405 -2.9555,5.92432 -7.6882,6.63403 -3.7125,0.55673 -5.5173,1.58312 -8.8954,5.05896 -2.3309,2.3983 -4.5866,4.36054 -5.0127,4.36054 -0.4261,0 -1.7422,-0.90888 -2.9247,-2.01973 -1.9897,-1.86923 -2.7008,-1.94159 -9.5433,-0.97115 -4.0663,0.57671 -7.8304,1.48559 -8.3645,2.01973 -1.37,1.36997 -2.0314,1.22514 -3.9162,-0.85759 z M 987.22711,-599.8031 c -2.3155,-0.6407 -2.5642,-1.3124 -3.3699,-9.0998 -0.7543,-7.2899 -0.6287,-8.8562 0.9446,-11.7775 2.0163,-3.7441 3.6219,-4.8323 10.9253,-7.4049 6.56789,-2.3136 7.45739,-2.2685 12.66529,0.6423 4.8889,2.7324 7.1965,7.4283 8.4111,17.116 l 0.6374,5.0849 -4.3039,3.1651 c -4.1552,3.0558 -4.634,3.1617 -13.85689,3.0655 -5.2542,-0.055 -10.678,-0.411 -12.053,-0.7916 z"
       id="path4223"
       inkscape:connector-curvature="0"
       sodipodi:nodetypes="sscscccccccssscccccccssssssssscssssscscccccsccscccccscccscscccsccssssssccccsscccssscccccccscsccscsssscssscsssccscscscssscssscscscsccsccscccscsssscccsscssssccsscsccccsscsccssccccssssscscscscccccsccccccccscssssccscccccccsscccscsscsccscssscsccsssssccssscsccscssccccsccccssssscccscssccsssccccccssscccccccscscssscscscssssscccccccccsccscsccsccscccscccccccssscccccscsccccssccssccccscscsssssscscsccscccssscccscsscsccsscccscccscsscscscsscscccccscscccccsccscscscssccsccssscsscsccccscssssssscsccccscsccczcc" />
    <rect
       style="fill:#5c5c5c;fill-opacity:1;stroke:none"
       id="rect4261"
       width="752"
       height="732"
       x="-492"
       y="-2299.6377" />
  </g>
</svg>
